SplineFontDB: 3.0
FontName: ADM5
FullName: ADM5
FamilyName: ADM5
Weight: Regular

StartChar: less
Encoding: 60 60 1
Width: 860
VWidth: 0
Flags: W
HStem: 0 161<521 641> 160 161<401 480> 320 161<281 360> 480 161<120 240> 640 161<281 360> 800 161<401 480> 960 161<521 641>
VStem: 120 161<481 640> 240 161<321 480 641 800> 360 161<161 320 801 960> 480 161<0 160 961 1121>
LayerCount: 2
Fore
SplineSet
120 480 m 1x11
 120 641 l 1x11
 240 641 l 1x1080
 240 801 l 1x0880
 360 801 l 1x0840
 360 961 l 1x0440
 480 961 l 1x0420
 480 1121 l 1
 641 1121 l 1
 641 960 l 1x0220
 521 960 l 1x0240
 521 800 l 1x0440
 401 800 l 1x0480
 401 640 l 1x0880
 281 640 l 1
 281 481 l 1x29
 401 481 l 1x2880
 401 321 l 1x4080
 521 321 l 1x4040
 521 161 l 1x8040
 641 161 l 1
 641 0 l 1
 480 0 l 1x8020
 480 160 l 1x4020
 360 160 l 1x4040
 360 320 l 1x2040
 240 320 l 1x2080
 240 480 l 1x1080
 120 480 l 1x11
EndSplineSet
EndChar

StartChar: dollar
Encoding: 36 36 2
Width: 860
VWidth: 0
Flags: W
HStem: 0 21G<240 401> 0 21G<240 401> 160 161<0 240 401 480> 320 161<521 641> 480 161<161 240 401 480> 640 161<0 120> 800 161<161 240 401 641> 1101 20G<240 401>
VStem: 0 161<641 800> 240 161<0 160 321 480 641 800 961 1121> 480 161<321 480>
CounterMasks: 1 00e0
LayerCount: 2
Fore
SplineSet
0 640 m 1x05e0
 0 801 l 1
 120 801 l 1x05e0
 120 961 l 1
 240 961 l 1
 240 1121 l 1
 401 1121 l 1
 401 961 l 1
 641 961 l 1
 641 800 l 1
 401 800 l 1
 401 641 l 1
 521 641 l 1x0be0
 521 481 l 1
 641 481 l 1
 641 320 l 1
 521 320 l 1x11e0
 521 160 l 1
 401 160 l 1
 401 0 l 1
 240 0 l 1
 240 160 l 1
 161 160 l 1
 120 160 l 1
 0 160 l 1
 0 321 l 1
 240 321 l 1
 240 480 l 1
 120 480 l 1xa9e0
 120 640 l 1
 0 640 l 1x05e0
161 800 m 1x0be0
 161 641 l 1
 240 641 l 1
 240 800 l 1
 161 800 l 1x0be0
401 480 m 1
 401 321 l 1
 480 321 l 1x29e0
 480 480 l 1
 401 480 l 1
EndSplineSet
EndChar

StartChar: four
Encoding: 52 52 3
Width: 860
VWidth: 0
Flags: W
HStem: 0 21G<360 521> 0 21G<360 521> 320 161<161 360 521 641> 640 161<161 240> 800 161<281 360> 1101 20G<360 521>
VStem: 0 161<481 640> 120 161<641 800> 240 281<801 961> 360 161<0 320 481 800 961 1121>
LayerCount: 2
Fore
SplineSet
521 1121 m 1x2c40
 521 481 l 1
 641 481 l 1
 641 320 l 1
 521 320 l 1
 521 0 l 1
 360 0 l 1
 360 320 l 1
 0 320 l 1
 0 641 l 1xae40
 120 641 l 1
 120 801 l 1xb5
 240 801 l 1xb480
 240 961 l 1x2c80
 360 961 l 1
 360 1121 l 1
 521 1121 l 1x2c40
281 800 m 1x2d40
 281 640 l 1x3540
 161 640 l 1
 161 481 l 1x36
 360 481 l 1
 360 800 l 1
 281 800 l 1x2d40
EndSplineSet
EndChar

StartChar: comma
Encoding: 44 44 4
Width: 860
VWidth: 0
Flags: W
HStem: -320 161<120 240>
VStem: 120 161<-320 -160> 240 161<-159 161>
LayerCount: 2
Fore
SplineSet
120 -320 m 1xc0
 120 -159 l 1xc0
 240 -159 l 1
 240 161 l 1
 401 161 l 1
 401 -160 l 1xa0
 281 -160 l 1
 281 -320 l 1
 120 -320 l 1xc0
EndSplineSet
EndChar

StartChar: D
Encoding: 68 68 5
Width: 860
VWidth: 0
Flags: W
HStem: 0 161<161 360> 160 161<401 480> 800 161<401 480> 960 161<161 360>
VStem: 0 401<0 160 961 1121> 0 161<161 960> 360 161<161 320 801 960> 480 161<321 800>
LayerCount: 2
Fore
SplineSet
0 1121 m 1x98
 401 1121 l 1x98
 401 961 l 1x28
 521 961 l 1
 521 801 l 1x22
 641 801 l 1
 641 320 l 1x21
 521 320 l 1
 521 160 l 1x62
 401 160 l 1x68
 401 0 l 1x88
 281 0 l 1
 240 0 l 1
 161 0 l 1x84
 120 0 l 1
 0 0 l 1
 0 1121 l 1x98
360 960 m 1x12
 161 960 l 1
 161 161 l 1
 360 161 l 1x96
 360 321 l 1x46
 480 321 l 1
 480 800 l 1x61
 360 800 l 1x62
 360 960 l 1x12
EndSplineSet
EndChar

StartChar: H
Encoding: 72 72 6
Width: 860
VWidth: 0
Flags: W
HStem: 0 21G<0 161 480 641> 0 21G<0 161 480 641> 480 161<161 480> 1101 20G<0 161 480 641>
VStem: 0 161<0 480 641 1121> 480 161<0 480 641 1121>
LayerCount: 2
Fore
SplineSet
161 1121 m 1xbc
 161 641 l 1
 480 641 l 1
 480 1121 l 1
 641 1121 l 1
 641 0 l 1
 480 0 l 1
 480 480 l 1
 401 480 l 2
 321 480 241 480 161 480 c 1
 161 0 l 1
 0 0 l 1
 0 1121 l 1
 161 1121 l 1xbc
EndSplineSet
EndChar

StartChar: L
Encoding: 76 76 7
Width: 860
VWidth: 0
Flags: W
HStem: 0 161<161 641> 1101 20G<0 161>
VStem: 0 161<161 1121>
LayerCount: 2
Fore
SplineSet
161 1121 m 1
 161 161 l 1
 641 161 l 1
 641 0 l 1
 521 0 l 1
 480 0 l 1
 401 0 l 1
 360 0 l 1
 281 0 l 1
 240 0 l 1
 161 0 l 1
 120 0 l 1
 0 0 l 1
 0 1121 l 1
 161 1121 l 1
EndSplineSet
EndChar

StartChar: P
Encoding: 80 80 8
Width: 860
VWidth: 0
Flags: W
HStem: 0 21G<0 161> 0 21G<0 161> 480 161<161 480> 960 161<161 480>
VStem: 0 521<480 640 961 1121> 0 161<0 480 641 960> 480 161<641 960>
LayerCount: 2
Fore
SplineSet
0 1121 m 1xb8
 521 1121 l 1
 521 961 l 1xb8
 641 961 l 1
 641 640 l 1xb2
 521 640 l 1
 521 480 l 1xb8
 161 480 l 1
 161 0 l 1
 0 0 l 1xb4
 0 1121 l 1xb8
480 960 m 1x36
 161 960 l 1
 161 641 l 1
 480 641 l 1
 480 960 l 1x36
EndSplineSet
EndChar

StartChar: five
Encoding: 53 53 9
Width: 860
VWidth: 0
Flags: W
HStem: 0 161<161 480> 160 161<0 120> 640 161<161 480> 960 161<161 641>
VStem: 0 161<161 321 801 960> 480 161<161 640>
LayerCount: 2
Fore
SplineSet
0 160 m 1x7c
 0 321 l 1
 161 321 l 1x7c
 161 161 l 1
 480 161 l 1xbc
 480 640 l 1
 360 640 240 640 120 640 c 2
 0 640 l 1
 0 1121 l 1
 641 1121 l 1
 641 960 l 1
 161 960 l 1
 161 801 l 1
 521 801 l 1
 521 641 l 1
 641 641 l 1
 641 160 l 1
 521 160 l 1x7c
 521 0 l 1
 401 0 l 1
 360 0 l 1
 281 0 l 1
 240 0 l 1
 120 0 l 1xbc
 120 160 l 1
 0 160 l 1x7c
EndSplineSet
EndChar

StartChar: T
Encoding: 84 84 10
Width: 860
VWidth: 0
Flags: W
HStem: 0 21G<240 401> 0 21G<240 401> 960 161<0 240 401 641>
VStem: 240 161<0 960>
LayerCount: 2
Fore
SplineSet
0 960 m 1xb0
 0 1121 l 1
 641 1121 l 1
 641 960 l 1
 401 960 l 1
 401 0 l 1
 240 0 l 1
 240 960 l 1
 161 960 l 1
 120 960 l 1
 0 960 l 1xb0
EndSplineSet
EndChar

StartChar: underscore
Encoding: 95 95 11
Width: 860
VWidth: 0
Flags: W
HStem: 0 161<0 641>
VStem: 0 641<0 161>
LayerCount: 2
Fore
SplineSet
0 0 m 1
 0 161 l 1
 641 161 l 1
 641 0 l 1
 521 0 l 1
 480 0 l 1
 401 0 l 1
 360 0 l 1
 281 0 l 1
 240 0 l 1
 161 0 l 1
 120 0 l 1
 0 0 l 1
EndSplineSet
EndChar

StartChar: X
Encoding: 88 88 12
Width: 860
VWidth: 0
Flags: W
HStem: 0 321<0 120 521 641> 320 161<161 240 401 480> 640 161<161 240 401 480> 800 321<0 120 521 641>
VStem: 0 161<0 320 801 1121> 120 161<321 480 641 800> 360 161<321 480 641 800> 480 161<0 320 801 1121>
LayerCount: 2
Fore
SplineSet
161 1121 m 1x18
 161 801 l 1x28
 281 801 l 1
 281 641 l 1
 360 641 l 1
 360 801 l 1x26
 480 801 l 1x21
 480 1121 l 1
 641 1121 l 1
 641 800 l 1x11
 521 800 l 1x12
 521 640 l 1
 401 640 l 1
 401 481 l 1
 521 481 l 1x62
 521 321 l 1x82
 641 321 l 1
 641 0 l 1
 480 0 l 1x81
 480 320 l 1x41
 360 320 l 1
 360 480 l 1
 281 480 l 1
 281 320 l 1x46
 161 320 l 1x48
 161 0 l 1
 0 0 l 1
 0 321 l 1x88
 120 321 l 1x84
 120 481 l 1
 240 481 l 1
 240 640 l 1
 120 640 l 1x64
 120 800 l 1x14
 0 800 l 1
 0 1121 l 1
 161 1121 l 1x18
EndSplineSet
EndChar

StartChar: bar
Encoding: 124 124 13
Width: 860
VWidth: 0
Flags: W
HStem: 0 21G<240 401> 0 21G<240 401> 1101 20G<240 401>
VStem: 240 161<0 481 640 1121>
LayerCount: 2
Fore
SplineSet
401 1121 m 1x30
 401 640 l 1
 240 640 l 1
 240 1121 l 1
 401 1121 l 1x30
401 481 m 1
 401 0 l 1
 240 0 l 1xb0
 240 481 l 1
 401 481 l 1
EndSplineSet
EndChar

StartChar: d
Encoding: 100 100 14
Width: 860
VWidth: 0
Flags: W
HStem: 0 161<161 360> 160 161<401 480> 480 161<401 480> 640 161<161 360> 1101 20G<480 641>
VStem: 0 161<161 640> 120 281<0 160 641 801> 360 281<161 321 480 640> 480 161<0 160 321 480 641 1121>
LayerCount: 2
Fore
SplineSet
641 1121 m 1x2a80
 641 0 l 1
 480 0 l 1xaa80
 480 160 l 1
 401 160 l 1x4a80
 401 0 l 1
 281 0 l 1
 240 0 l 1
 120 0 l 1x8a80
 120 160 l 1x4a80
 0 160 l 1
 0 641 l 1x6c
 120 641 l 1x6a
 120 801 l 1
 401 801 l 1x1a
 401 641 l 1
 480 641 l 1
 480 1121 l 1
 641 1121 l 1x2a80
360 640 m 1x19
 320 640 280 640 240 640 c 2
 161 640 l 1
 161 161 l 1
 360 161 l 1x9d
 360 321 l 1x4d
 480 321 l 1
 480 480 l 1x6880
 360 480 l 1x69
 360 640 l 1x19
EndSplineSet
EndChar

StartChar: h
Encoding: 104 104 15
Width: 860
VWidth: 0
Flags: W
HStem: 0 21G<0 161 480 641> 0 21G<0 161 480 641> 480 161<161 240> 640 161<281 480> 1101 20G<0 161>
VStem: 0 281<480 640> 0 161<0 480 641 1121> 240 281<641 801> 480 161<0 640>
LayerCount: 2
Fore
SplineSet
161 1121 m 1xaa
 161 641 l 1
 240 641 l 1xab
 240 801 l 1
 521 801 l 1x1b
 521 641 l 1x2b
 641 641 l 1x2880
 641 0 l 1
 480 0 l 1
 480 640 l 1
 440 640 400 640 360 640 c 2
 281 640 l 1x9c80
 281 480 l 1x2c80
 161 480 l 1
 161 0 l 1
 0 0 l 1
 0 1121 l 1
 161 1121 l 1xaa
EndSplineSet
EndChar

StartChar: l
Encoding: 108 108 16
Width: 860
VWidth: 0
Flags: W
HStem: 0 161<120 240 401 521> 960 161<120 240>
VStem: 120 281<960 1121> 240 161<161 960>
LayerCount: 2
Fore
SplineSet
120 960 m 1xe0
 120 1121 l 1
 401 1121 l 1xe0
 401 161 l 1
 521 161 l 1
 521 0 l 1
 401 0 l 1
 360 0 l 1
 281 0 l 1
 240 0 l 1xd0
 120 0 l 1
 120 161 l 1xe0
 240 161 l 1
 240 960 l 1xd0
 120 960 l 1xe0
EndSplineSet
EndChar

StartChar: p
Encoding: 112 112 17
Width: 860
VWidth: 0
Flags: W
HStem: 0 161<281 480> 160 161<161 240> 480 161<161 240> 640 161<281 480>
VStem: 0 281<161 321 480 640> 0 161<-320 160 321 480 641 801> 240 281<0 160 641 801> 480 161<161 640>
LayerCount: 2
Fore
SplineSet
480 640 m 1x99
 440 640 400 640 360 640 c 2
 281 640 l 1x99
 281 480 l 1x29
 161 480 l 1
 161 321 l 1x64
 281 321 l 1x68
 281 161 l 1
 480 161 l 1
 480 640 l 1x99
240 801 m 1x16
 521 801 l 1x16
 521 641 l 1x26
 641 641 l 1
 641 160 l 1x61
 521 160 l 1x62
 521 0 l 1
 401 0 l 1
 360 0 l 1
 240 0 l 1x82
 240 160 l 1
 161 160 l 1
 161 -320 l 1
 0 -320 l 1
 0 801 l 1
 161 801 l 1x56
 161 641 l 1
 240 641 l 1x26
 240 801 l 1x16
EndSplineSet
EndChar

StartChar: t
Encoding: 116 116 18
Width: 860
VWidth: 0
Flags: W
HStem: 0 161<281 360> 160 161<401 521> 640 161<0 120 281 401> 1101 20G<120 281>
VStem: 120 161<161 640 801 1121> 240 161<0 160> 360 161<161 321>
LayerCount: 2
Fore
SplineSet
0 640 m 1x78
 0 801 l 1
 120 801 l 1
 120 1121 l 1
 281 1121 l 1
 281 801 l 1x78
 401 801 l 1
 401 640 l 1x74
 281 640 l 1
 281 161 l 1
 360 161 l 1xba
 360 321 l 1
 521 321 l 1
 521 160 l 1x7a
 401 160 l 1x74
 401 0 l 1
 240 0 l 1xb4
 240 160 l 1x74
 120 160 l 1
 120 640 l 1
 0 640 l 1x78
EndSplineSet
EndChar

StartChar: x
Encoding: 120 120 19
Width: 860
VWidth: 0
Flags: W
HStem: 0 161<0 120 521 641> 160 161<161 240 401 480> 480 161<161 240 401 480> 640 161<0 120 521 641>
VStem: 0 161<0 160 641 801> 120 161<161 320 481 640> 360 161<161 320 481 640> 480 161<0 160 641 801>
LayerCount: 2
Fore
SplineSet
0 640 m 1x18
 0 801 l 1
 161 801 l 1x18
 161 641 l 1x28
 281 641 l 1
 281 481 l 1
 360 481 l 1
 360 641 l 1x26
 480 641 l 1x21
 480 801 l 1
 641 801 l 1
 641 640 l 1x11
 521 640 l 1x12
 521 480 l 1
 401 480 l 1
 401 321 l 1
 521 321 l 1x62
 521 161 l 1x82
 641 161 l 1
 641 0 l 1
 480 0 l 1x81
 480 160 l 1x41
 360 160 l 1
 360 320 l 1
 281 320 l 1
 281 160 l 1x46
 161 160 l 1x48
 161 0 l 1
 0 0 l 1
 0 161 l 1x88
 120 161 l 1x84
 120 321 l 1
 240 321 l 1
 240 480 l 1
 120 480 l 1x64
 120 640 l 1x14
 0 640 l 1x18
EndSplineSet
EndChar

StartChar: parenright
Encoding: 41 41 20
Width: 860
VWidth: 0
Flags: W
HStem: 0 161<120 240> 160 161<281 360> 800 161<281 360> 960 161<120 240>
VStem: 120 161<0 160 961 1121> 240 161<161 320 801 960> 360 161<321 800>
LayerCount: 2
Fore
SplineSet
120 960 m 1x18
 120 1121 l 1
 281 1121 l 1x18
 281 961 l 1x28
 401 961 l 1
 401 801 l 1x24
 521 801 l 1
 521 320 l 1x22
 401 320 l 1
 401 160 l 1x64
 281 160 l 1x68
 281 0 l 1
 120 0 l 1
 120 161 l 1x88
 240 161 l 1x84
 240 321 l 1x44
 360 321 l 1
 360 800 l 1x62
 240 800 l 1x64
 240 960 l 1x14
 120 960 l 1x18
EndSplineSet
EndChar

StartChar: zero
Encoding: 48 48 21
Width: 860
VWidth: 0
Flags: W
HStem: 0 161<161 480> 320 161<161 240> 480 161<281 360> 640 161<401 480> 960 161<161 480>
VStem: 0 281<320 480> 0 161<161 320 481 960> 120 401<0 160 961 1121> 240 161<481 640> 360 281<641 801> 480 161<161 640 801 960>
LayerCount: 2
Fore
SplineSet
480 960 m 1x9820
 400 960 320 960 240 960 c 2
 161 960 l 1
 161 481 l 1
 240 481 l 1xdaa0
 240 641 l 1xaaa0
 360 641 l 1xa840
 360 801 l 1x9840
 480 801 l 1
 480 960 l 1x9820
120 1121 m 1x89
 521 1121 l 1
 521 961 l 1x89
 641 961 l 1
 641 160 l 1x8820
 521 160 l 1
 521 0 l 1x89
 401 0 l 1x8880
 360 0 l 1
 281 0 l 1x8c40
 240 0 l 1x8880
 120 0 l 1
 120 160 l 1x89
 0 160 l 1
 0 961 l 1x8a
 120 961 l 1
 120 1121 l 1x89
401 640 m 1xdaa0
 401 480 l 1xaaa0
 281 480 l 1xac
 281 320 l 1xcc
 161 320 l 1
 161 161 l 1
 480 161 l 1
 480 640 l 1
 401 640 l 1xdaa0
EndSplineSet
EndChar

StartChar: quotesingle
Encoding: 39 39 22
Width: 860
VWidth: 0
Flags: W
HStem: 640 161<120 240> 800 161<281 360> 960 161<401 521>
VStem: 120 161<640 800> 240 161<801 960> 360 161<961 1121>
LayerCount: 2
Fore
SplineSet
120 640 m 1x90
 120 801 l 1x90
 240 801 l 1x88
 240 961 l 1x48
 360 961 l 1x44
 360 1121 l 1
 521 1121 l 1
 521 960 l 1x24
 401 960 l 1x28
 401 800 l 1x48
 281 800 l 1x50
 281 640 l 1
 120 640 l 1x90
EndSplineSet
EndChar

StartChar: braceleft
Encoding: 123 123 23
Width: 860
VWidth: 0
Flags: W
HStem: 0 161<281 521> 480 161<0 120> 960 161<281 521>
VStem: 0 161<481 640> 120 161<161 480 641 960> 240 281<0 160 961 1121>
CounterMasks: 1 e0
LayerCount: 2
Fore
SplineSet
0 480 m 1xf0
 0 641 l 1xf0
 120 641 l 1
 120 961 l 1xe8
 240 961 l 1
 240 1121 l 1
 521 1121 l 1
 521 960 l 1xe4
 467 960 414 960 360 960 c 2
 281 960 l 1
 281 640 l 1xe8
 161 640 l 1
 161 481 l 1xf0
 281 481 l 1
 281 161 l 1xe8
 521 161 l 1
 521 0 l 1
 401 0 l 1
 360 0 l 1
 240 0 l 1
 240 160 l 1xe4
 120 160 l 1
 120 480 l 1xe8
 0 480 l 1xf0
EndSplineSet
EndChar

StartChar: 57504
Encoding: 256 57504 24
Width: 860
VWidth: 0
Flags: W
HStem: 0 161<0 120> 160 161<161 240> 320 161<281 360> 800 161<240 360 521 641> 1101 20G<0 161 360 521>
VStem: 0 161<0 160 480 1121> 120 161<161 320> 240 161<321 480> 360 161<481 800 961 1121>
LayerCount: 2
Fore
SplineSet
240 800 m 1x39
 240 961 l 1x39
 360 961 l 1
 360 1121 l 1
 521 1121 l 1
 521 961 l 1
 641 961 l 1
 641 800 l 1
 521 800 l 1
 521 480 l 1x3880
 401 480 l 1
 401 320 l 1x39
 281 320 l 1x3a
 281 160 l 1x5a
 161 160 l 1x5c
 161 0 l 1
 0 0 l 1
 0 161 l 1x9c
 120 161 l 1x9a
 120 321 l 1x5a
 240 321 l 1x59
 240 481 l 1x39
 360 481 l 1
 360 800 l 1x3880
 240 800 l 1x39
161 1121 m 1x1c
 161 480 l 1
 0 480 l 1
 0 1121 l 1
 161 1121 l 1x1c
EndSplineSet
EndChar

StartChar: 57505
Encoding: 257 57505 25
Width: 860
VWidth: 0
Flags: W
HStem: 0 21G<120 281 480 641> 0 21G<120 281 480 641> 160 161<401 480> 320 161<281 360> 640 161<281 401> 1101 20G<0 161>
VStem: 0 161<801 1121> 120 281<321 481> 120 161<0 320 481 640> 360 281<160 320> 480 161<0 160 321 641>
LayerCount: 2
Fore
SplineSet
161 1121 m 1x9e
 161 801 l 1x9e
 401 801 l 1
 401 640 l 1x9d
 281 640 l 1
 281 481 l 1x9c80
 401 481 l 1x9d
 401 321 l 1
 480 321 l 1
 480 641 l 1
 641 641 l 1
 641 0 l 1
 480 0 l 1
 480 160 l 1xad20
 360 160 l 1xac40
 360 320 l 1
 281 320 l 1
 281 0 l 1
 120 0 l 1
 120 640 l 1x9cc0
 0 640 l 1
 0 1121 l 1
 161 1121 l 1x9e
EndSplineSet
EndChar

StartChar: 57506
Encoding: 258 57506 26
Width: 860
VWidth: 0
Flags: W
HStem: 0 161<281 360> 640 161<161 480> 960 161<161 480>
VStem: 0 281<161 481> 0 161<481 640 801 960> 360 281<161 481> 480 161<481 640 801 960>
LayerCount: 2
Fore
SplineSet
480 960 m 1xea
 400 960 320 960 240 960 c 2
 161 960 l 1
 161 801 l 1
 480 801 l 1
 480 960 l 1xea
120 1121 m 1
 521 1121 l 1
 521 961 l 1
 641 961 l 1
 641 0 l 1
 521 0 l 1
 480 0 l 1xea
 401 0 l 1
 360 0 l 1
 281 0 l 1xf4
 240 0 l 1
 161 0 l 1
 120 0 l 1
 0 0 l 1
 0 961 l 1
 120 961 l 1
 120 1121 l 1
401 640 m 2
 321 640 241 640 161 640 c 1
 161 481 l 1xea
 281 481 l 1
 281 161 l 1
 360 161 l 1
 360 481 l 1xf4
 480 481 l 1
 480 640 l 1
 401 640 l 2
EndSplineSet
EndChar

StartChar: 57520
Encoding: 259 57520 27
Width: 860
VWidth: 0
Flags: W
HStem: 0 21G<0 281> 0 21G<0 281> 480 161<521 641> 1101 20G<0 281>
VStem: 0 521<320 480 641 801> 0 401<160 320 801 961> 0 281<0 160 961 1121>
LayerCount: 2
Fore
SplineSet
0 1121 m 1xb2
 281 1121 l 1
 281 961 l 1xb2
 401 961 l 1
 401 801 l 1xb4
 521 801 l 1
 521 641 l 1
 641 641 l 1
 641 480 l 1
 521 480 l 1
 521 320 l 1xb8
 401 320 l 1
 401 160 l 1xb4
 281 160 l 1
 281 0 l 1
 161 0 l 1
 120 0 l 1
 0 0 l 1
 0 1121 l 1xb2
EndSplineSet
EndChar

StartChar: 57521
Encoding: 260 57521 28
Width: 860
VWidth: 0
Flags: W
HStem: 0 161<0 240> 160 161<281 360> 320 161<401 480> 480 161<521 641> 640 161<401 480> 800 161<281 360> 960 161<0 240>
VStem: 0 281<0 160 961 1121> 240 161<161 320 801 960> 360 161<321 480 641 800> 480 161<481 640>
LayerCount: 2
Fore
SplineSet
0 960 m 1x03
 0 1121 l 1
 281 1121 l 1x03
 281 961 l 1x05
 401 961 l 1x0480
 401 801 l 1x0880
 521 801 l 1x0840
 521 641 l 1x1040
 641 641 l 1
 641 480 l 1x1020
 521 480 l 1x1040
 521 320 l 1x2040
 401 320 l 1x2080
 401 160 l 1x4080
 281 160 l 1x41
 281 0 l 1
 161 0 l 1
 120 0 l 1
 0 0 l 1
 0 161 l 1x81
 240 161 l 1x8080
 240 321 l 1x4080
 360 321 l 1x4040
 360 481 l 1x2040
 480 481 l 1
 480 640 l 1x2820
 360 640 l 1x2840
 360 800 l 1x0440
 240 800 l 1x0480
 240 960 l 1x0280
 200 960 160 960 120 960 c 2
 0 960 l 1x03
EndSplineSet
EndChar

StartChar: 57522
Encoding: 261 57522 29
Width: 860
VWidth: 0
Flags: W
HStem: 0 21G<360 641> 0 21G<360 641> 480 161<0 120> 1101 20G<360 641>
VStem: 120 521<320 480 641 801> 240 401<160 320 801 961> 360 281<0 160 961 1121>
LayerCount: 2
Fore
SplineSet
0 480 m 1xb8
 0 641 l 1
 120 641 l 1
 120 801 l 1xb8
 240 801 l 1
 240 961 l 1xb4
 360 961 l 1
 360 1121 l 1
 641 1121 l 1
 641 0 l 1
 521 0 l 1
 480 0 l 1
 360 0 l 1
 360 160 l 1xb2
 240 160 l 1
 240 320 l 1xb4
 120 320 l 1
 120 480 l 1
 0 480 l 1xb8
EndSplineSet
EndChar

StartChar: 57523
Encoding: 262 57523 30
Width: 860
VWidth: 0
Flags: W
HStem: 0 161<401 641> 160 161<281 360> 320 161<161 240> 480 161<0 120> 640 161<161 240> 800 161<281 360> 960 161<401 641>
VStem: 0 161<481 640> 120 161<321 480 641 800> 240 161<161 320 801 960> 360 281<0 160 961 1121>
LayerCount: 2
Fore
SplineSet
0 480 m 1x11
 0 641 l 1x11
 120 641 l 1x1080
 120 801 l 1x0880
 240 801 l 1x0840
 240 961 l 1x0440
 360 961 l 1x0420
 360 1121 l 1
 641 1121 l 1
 641 960 l 1x0220
 587 960 534 960 480 960 c 2
 401 960 l 1x0240
 401 800 l 1x0440
 281 800 l 1x0480
 281 640 l 1x0880
 161 640 l 1
 161 481 l 1x29
 281 481 l 1x2880
 281 321 l 1x4080
 401 321 l 1x4040
 401 161 l 1x8040
 641 161 l 1
 641 0 l 1
 521 0 l 1
 480 0 l 1
 360 0 l 1x8020
 360 160 l 1x4020
 240 160 l 1x4040
 240 320 l 1x2040
 120 320 l 1x2080
 120 480 l 1x1080
 0 480 l 1x11
EndSplineSet
EndChar

StartChar: ampersand
Encoding: 38 38 31
Width: 860
VWidth: 0
Flags: W
HStem: 0 161<161 360 521 641> 160 161<401 480> 320 161<521 641> 960 161<281 360>
VStem: 0 161<161 480> 120 161<641 960> 240 161<321 480 961 1121> 360 161<161 320 641 960> 480 161<0 160 321 481>
LayerCount: 2
Fore
SplineSet
281 960 m 1x15
 281 641 l 1
 360 641 l 1
 360 960 l 1
 281 960 l 1x15
240 961 m 1x32
 240 1121 l 1
 401 1121 l 1
 401 961 l 1x32
 521 961 l 1
 521 640 l 1x31
 401 640 l 1
 401 321 l 1
 480 321 l 1x5280
 480 481 l 1
 641 481 l 1
 641 320 l 1x3280
 521 320 l 1
 521 161 l 1xb1
 641 161 l 1
 641 0 l 1
 480 0 l 1xb080
 480 160 l 1
 401 160 l 1x5280
 401 0 l 1x9280
 281 0 l 1x94
 240 0 l 1x92
 120 0 l 1x94
 120 160 l 1x54
 0 160 l 1x58
 0 481 l 1x38
 120 481 l 1
 120 961 l 1x34
 240 961 l 1x32
161 480 m 1xba
 161 161 l 1
 360 161 l 1
 360 320 l 1xb9
 240 320 l 1
 240 480 l 1
 161 480 l 1xba
EndSplineSet
EndChar

StartChar: slash
Encoding: 47 47 32
Width: 860
VWidth: 0
Flags: W
HStem: 160 161<0 120> 320 161<161 240> 480 161<281 360> 640 161<401 480> 800 161<521 641>
VStem: 0 161<160 320> 120 161<321 480> 240 161<481 640> 360 161<641 800> 480 161<801 961>
LayerCount: 2
Fore
SplineSet
0 160 m 1x84
 0 321 l 1x84
 120 321 l 1x82
 120 481 l 1x42
 240 481 l 1x41
 240 641 l 1x21
 360 641 l 1x2080
 360 801 l 1x1080
 480 801 l 1x1040
 480 961 l 1
 641 961 l 1
 641 800 l 1x0840
 521 800 l 1x0880
 521 640 l 1x1080
 401 640 l 1x11
 401 480 l 1x21
 281 480 l 1x22
 281 320 l 1x42
 161 320 l 1x44
 161 160 l 1
 0 160 l 1x84
EndSplineSet
EndChar

StartChar: C
Encoding: 67 67 33
Width: 860
VWidth: 0
Flags: W
HStem: 0 161<161 480> 160 161<521 641> 800 161<521 641> 960 161<161 480>
VStem: 0 161<161 960> 120 401<0 160 961 1121> 480 161<161 321 800 960>
LayerCount: 2
Fore
SplineSet
480 960 m 1x12
 400 960 320 960 240 960 c 2
 161 960 l 1
 161 161 l 1
 480 161 l 1x9a
 480 321 l 1
 641 321 l 1
 641 160 l 1x4a
 521 160 l 1x44
 521 0 l 1
 401 0 l 1
 360 0 l 1
 281 0 l 1
 240 0 l 1
 120 0 l 1x84
 120 160 l 1x44
 0 160 l 1
 0 961 l 1x68
 120 961 l 1x64
 120 1121 l 1
 521 1121 l 1x14
 521 961 l 1x24
 641 961 l 1
 641 800 l 1
 480 800 l 1x22
 480 960 l 1x12
EndSplineSet
EndChar

StartChar: G
Encoding: 71 71 34
Width: 860
VWidth: 0
Flags: W
HStem: 0 161<161 480> 320 161<360 480> 960 161<161 641>
VStem: 0 161<161 960> 120 521<0 160 961 1121> 360 281<320 481> 480 161<161 320>
LayerCount: 2
Fore
SplineSet
360 320 m 1xe4
 360 481 l 1
 641 481 l 1xe4
 641 0 l 1xe8
 521 0 l 1
 480 0 l 1xe2
 401 0 l 1
 360 0 l 1xe4
 281 0 l 1
 240 0 l 1
 120 0 l 1
 120 160 l 1xe8
 0 160 l 1
 0 961 l 1xf0
 120 961 l 1
 120 1121 l 1
 641 1121 l 1xe8
 641 960 l 1
 507 960 374 960 240 960 c 2
 161 960 l 1
 161 161 l 1
 480 161 l 1
 480 320 l 1xf2
 360 320 l 1xe4
EndSplineSet
EndChar

StartChar: asterisk
Encoding: 42 42 35
Width: 860
VWidth: 0
Flags: W
HStem: 320 161<0 120 521 641> 480 161<161 240 401 480> 640 161<0 120 521 641>
VStem: 0 161<320 480 641 801> 240 161<160 480 641 961> 480 161<320 480 641 801>
CounterMasks: 1 1c
LayerCount: 2
Fore
SplineSet
0 640 m 1xbc
 0 801 l 1
 161 801 l 1xbc
 161 641 l 1
 240 641 l 1
 240 961 l 1
 401 961 l 1
 401 641 l 1
 480 641 l 1x5c
 480 801 l 1
 641 801 l 1
 641 640 l 1
 521 640 l 1
 521 481 l 1
 641 481 l 1
 641 320 l 1
 480 320 l 1xbc
 480 480 l 1
 401 480 l 1
 401 160 l 1
 240 160 l 1
 240 480 l 1
 161 480 l 1x5c
 161 320 l 1
 0 320 l 1
 0 481 l 1
 120 481 l 1
 120 640 l 1
 0 640 l 1xbc
EndSplineSet
EndChar

StartChar: K
Encoding: 75 75 36
Width: 860
VWidth: 0
Flags: W
HStem: 0 161<521 641> 160 161<401 480> 320 161<281 360> 480 161<161 240> 640 161<281 360> 800 161<401 480> 960 161<521 641>
VStem: 0 281<481 640> 0 161<0 480 641 1121> 240 161<321 480 641 800> 360 161<161 320 801 960> 480 161<0 160 961 1121>
LayerCount: 2
Fore
SplineSet
161 1121 m 1x92c0
 161 641 l 1
 240 641 l 1x92c0
 240 801 l 1x08c0
 360 801 l 1x0820
 360 961 l 1x0420
 480 961 l 1x0410
 480 1121 l 1
 641 1121 l 1
 641 960 l 1x0210
 521 960 l 1x0220
 521 800 l 1x0420
 401 800 l 1x0440
 401 640 l 1x0840
 281 640 l 1
 281 481 l 1x29
 401 481 l 1x2840
 401 321 l 1x4040
 521 321 l 1x4020
 521 161 l 1x8020
 641 161 l 1
 641 0 l 1
 480 0 l 1x8010
 480 160 l 1x4010
 360 160 l 1x4020
 360 320 l 1x2020
 240 320 l 1x2040
 240 480 l 1
 161 480 l 1
 161 0 l 1
 0 0 l 1
 0 1121 l 1
 161 1121 l 1x92c0
EndSplineSet
EndChar

StartChar: O
Encoding: 79 79 37
Width: 860
VWidth: 0
Flags: W
HStem: 0 161<161 480> 960 161<161 480>
VStem: 0 161<161 960> 120 401<0 160 961 1121> 480 161<161 960>
LayerCount: 2
Fore
SplineSet
480 960 m 1xe8
 400 960 320 960 240 960 c 2
 161 960 l 1
 161 161 l 1
 480 161 l 1
 480 960 l 1xe8
120 1121 m 1xd0
 521 1121 l 1
 521 961 l 1xd0
 641 961 l 1
 641 160 l 1xc8
 521 160 l 1
 521 0 l 1
 401 0 l 1
 360 0 l 1
 281 0 l 1
 240 0 l 1
 120 0 l 1
 120 160 l 1xd0
 0 160 l 1
 0 961 l 1xe0
 120 961 l 1
 120 1121 l 1xd0
EndSplineSet
EndChar

StartChar: S
Encoding: 83 83 38
Width: 860
VWidth: 0
Flags: W
HStem: 0 161<161 480> 160 161<0 120> 480 161<161 480> 800 161<521 641> 960 161<161 480>
VStem: 0 161<161 321 641 960> 120 401<0 160 481 640 961 1121> 480 161<161 480 800 960>
LayerCount: 2
Fore
SplineSet
0 160 m 1x64
 0 321 l 1
 161 321 l 1x64
 161 161 l 1
 480 161 l 1
 480 480 l 1xa5
 400 480 320 480 240 480 c 2
 120 480 l 1
 120 640 l 1xa2
 0 640 l 1
 0 961 l 1xb4
 120 961 l 1xb2
 120 1121 l 1
 521 1121 l 1x2a
 521 961 l 1x32
 641 961 l 1
 641 800 l 1
 480 800 l 1x31
 480 960 l 1
 400 960 320 960 240 960 c 2
 161 960 l 1
 161 641 l 1x2d
 521 641 l 1
 521 481 l 1x2a
 641 481 l 1
 641 160 l 1x69
 521 160 l 1x6a
 521 0 l 1
 401 0 l 1
 360 0 l 1
 281 0 l 1
 240 0 l 1
 120 0 l 1xa2
 120 160 l 1x62
 0 160 l 1x64
EndSplineSet
EndChar

StartChar: W
Encoding: 87 87 39
Width: 860
VWidth: 0
Flags: W
HStem: 0 21G<0 161 480 641> 0 21G<0 161 480 641> 160 161<161 240 401 480> 1101 20G<0 161 480 641>
VStem: 0 161<0 160 321 1121> 240 161<321 641> 480 161<0 160 321 1121>
CounterMasks: 1 0e
LayerCount: 2
Fore
SplineSet
161 1121 m 1xbe
 161 321 l 1
 240 321 l 1
 240 641 l 1
 401 641 l 1
 401 321 l 1
 480 321 l 1
 480 1121 l 1
 641 1121 l 1
 641 0 l 1
 480 0 l 1
 480 160 l 1
 401 160 l 2
 321 160 241 160 161 160 c 1
 161 0 l 1
 0 0 l 1
 0 1121 l 1
 161 1121 l 1xbe
EndSplineSet
EndChar

StartChar: exclam
Encoding: 33 33 40
Width: 860
VWidth: 0
Flags: W
HStem: 0 161<240 401> 1101 20G<240 401>
VStem: 240 161<0 161 320 1121>
LayerCount: 2
Fore
SplineSet
240 0 m 1
 240 161 l 1
 401 161 l 1
 401 0 l 1
 240 0 l 1
401 1121 m 1
 401 320 l 1
 240 320 l 1
 240 1121 l 1
 401 1121 l 1
EndSplineSet
EndChar

StartChar: c
Encoding: 99 99 41
Width: 860
VWidth: 0
Flags: W
HStem: 0 161<161 641> 640 161<161 641>
VStem: 0 161<161 640> 120 521<0 160 641 801>
LayerCount: 2
Fore
SplineSet
641 640 m 1xd0
 507 640 374 640 240 640 c 2
 161 640 l 1
 161 161 l 1xe0
 641 161 l 1
 641 0 l 1
 521 0 l 1
 480 0 l 1
 401 0 l 1
 360 0 l 1
 281 0 l 1
 240 0 l 1
 120 0 l 1
 120 160 l 1xd0
 0 160 l 1
 0 641 l 1xe0
 120 641 l 1
 120 801 l 1
 641 801 l 1
 641 640 l 1xd0
EndSplineSet
EndChar

StartChar: g
Encoding: 103 103 42
Width: 860
VWidth: 0
Flags: W
HStem: -320 161<120 480> 0 161<161 360> 160 161<401 480> 480 161<401 480> 640 161<161 360>
VStem: 0 161<161 640> 120 281<0 160 641 801> 360 281<161 321 480 640> 480 161<-159 160 321 480 641 801>
LayerCount: 2
Fore
SplineSet
120 -320 m 1x8a80
 120 -159 l 1
 480 -159 l 1
 480 160 l 1
 401 160 l 1xaa80
 401 0 l 1
 281 0 l 1
 240 0 l 1
 120 0 l 1xc280
 120 160 l 1xa280
 0 160 l 1
 0 641 l 1xb4
 120 641 l 1xb2
 120 801 l 1
 401 801 l 1x8a
 401 641 l 1
 480 641 l 1x9280
 480 801 l 1
 641 801 l 1
 641 -160 l 1
 521 -160 l 1
 521 -320 l 1
 120 -320 l 1x8a80
360 640 m 1x89
 320 640 280 640 240 640 c 2
 161 640 l 1
 161 161 l 1
 360 161 l 1xcd
 360 321 l 1xa5
 480 321 l 1
 480 480 l 1xb080
 360 480 l 1xb1
 360 640 l 1x89
EndSplineSet
EndChar

StartChar: k
Encoding: 107 107 43
Width: 860
VWidth: 0
Flags: W
HStem: 0 161<401 521> 160 161<281 360> 320 161<161 240> 480 161<281 360> 640 161<401 521> 1101 20G<0 161>
VStem: 0 281<321 480> 0 161<0 320 481 1121> 240 161<161 320 481 640> 360 161<0 160 641 801>
LayerCount: 2
Fore
SplineSet
161 1121 m 1xa580
 161 481 l 1
 240 481 l 1xa580
 240 641 l 1x1580
 360 641 l 1x1440
 360 801 l 1
 521 801 l 1
 521 640 l 1x0c40
 401 640 l 1x0c80
 401 480 l 1x1480
 281 480 l 1
 281 321 l 1x56
 401 321 l 1x5480
 401 161 l 1x8480
 521 161 l 1
 521 0 l 1
 360 0 l 1x8440
 360 160 l 1x4440
 240 160 l 1x4480
 240 320 l 1
 161 320 l 1
 161 0 l 1
 0 0 l 1
 0 1121 l 1
 161 1121 l 1xa580
EndSplineSet
EndChar

StartChar: equal
Encoding: 61 61 44
Width: 860
VWidth: 0
Flags: W
HStem: 320 161<0 641> 640 161<0 641>
VStem: 0 641<320 481 640 801>
LayerCount: 2
Fore
SplineSet
0 640 m 1
 0 801 l 1
 641 801 l 1
 641 640 l 1
 467 640 294 640 120 640 c 2
 0 640 l 1
0 320 m 1
 0 481 l 1
 641 481 l 1
 641 320 l 1
 0 320 l 1
EndSplineSet
EndChar

StartChar: o
Encoding: 111 111 45
Width: 860
VWidth: 0
Flags: W
HStem: 0 161<161 480> 640 161<161 480>
VStem: 0 161<161 640> 120 401<0 160 641 801> 480 161<161 640>
LayerCount: 2
Fore
SplineSet
480 640 m 1xe8
 400 640 320 640 240 640 c 2
 161 640 l 1
 161 161 l 1
 480 161 l 1
 480 640 l 1xe8
120 801 m 1xd0
 521 801 l 1
 521 641 l 1xd0
 641 641 l 1
 641 160 l 1xc8
 521 160 l 1
 521 0 l 1
 401 0 l 1
 360 0 l 1
 281 0 l 1
 240 0 l 1
 120 0 l 1
 120 160 l 1xd0
 0 160 l 1
 0 641 l 1xe0
 120 641 l 1
 120 801 l 1xd0
EndSplineSet
EndChar

StartChar: s
Encoding: 115 115 46
Width: 860
VWidth: 0
Flags: W
HStem: 0 161<0 480> 160 161<521 641> 320 161<161 480> 480 161<0 120> 640 161<161 641>
VStem: 0 161<481 640> 480 161<161 320>
LayerCount: 2
Fore
SplineSet
0 480 m 1x16
 0 641 l 1
 120 641 l 1x16
 120 801 l 1
 641 801 l 1
 641 640 l 1
 507 640 374 640 240 640 c 2
 161 640 l 1
 161 481 l 1
 521 481 l 1x2e
 521 321 l 1
 641 321 l 1
 641 160 l 1
 521 160 l 1x46
 521 0 l 1
 401 0 l 1
 360 0 l 1
 281 0 l 1
 240 0 l 1
 161 0 l 1
 120 0 l 1
 0 0 l 1
 0 161 l 1
 480 161 l 1
 480 320 l 1
 120 320 l 1xa6
 120 480 l 1
 0 480 l 1x16
EndSplineSet
EndChar

StartChar: plus
Encoding: 43 43 47
Width: 860
VWidth: 0
Flags: W
HStem: 480 161<0 240 401 641>
VStem: 240 161<160 480 641 961>
LayerCount: 2
Fore
SplineSet
0 480 m 1
 0 641 l 1
 240 641 l 1
 240 961 l 1
 401 961 l 1
 401 641 l 1
 641 641 l 1
 641 480 l 1
 401 480 l 1
 401 160 l 1
 240 160 l 1
 240 480 l 1
 161 480 l 1
 120 480 l 1
 0 480 l 1
EndSplineSet
EndChar

StartChar: w
Encoding: 119 119 48
Width: 860
VWidth: 0
Flags: W
HStem: 0 161<161 240 401 480> 781 20G<0 161 480 641>
VStem: 0 161<161 801> 120 161<0 160> 240 161<161 481> 360 161<0 160> 480 161<161 801>
LayerCount: 2
Fore
SplineSet
161 801 m 1xe0
 161 161 l 1
 240 161 l 1
 240 481 l 1
 401 481 l 1
 401 161 l 1
 480 161 l 1
 480 801 l 1
 641 801 l 1
 641 160 l 1xea
 521 160 l 1
 521 0 l 1
 360 0 l 1
 360 160 l 1
 281 160 l 1
 281 0 l 1
 120 0 l 1
 120 160 l 1xd4
 0 160 l 1
 0 801 l 1
 161 801 l 1xe0
EndSplineSet
EndChar

StartChar: eight
Encoding: 56 56 49
Width: 860
VWidth: 0
Flags: W
HStem: 0 161<161 480> 160 321<0 120 521 641> 480 161<161 480> 640 321<0 120 521 641> 960 161<161 480>
VStem: 0 161<161 480 641 960> 120 401<0 160 481 640 961 1121> 480 161<161 480 641 960>
LayerCount: 2
Fore
SplineSet
480 960 m 1x2d
 400 960 320 960 240 960 c 2
 161 960 l 1
 161 641 l 1
 480 641 l 1
 480 960 l 1x2d
120 1121 m 1x0a
 521 1121 l 1x0a
 521 961 l 1x12
 641 961 l 1
 641 640 l 1x11
 521 640 l 1
 521 481 l 1x52
 641 481 l 1
 641 160 l 1x51
 521 160 l 1x52
 521 0 l 1
 401 0 l 1
 360 0 l 1
 281 0 l 1
 240 0 l 1
 120 0 l 1x82
 120 160 l 1x42
 0 160 l 1
 0 481 l 1x44
 120 481 l 1
 120 640 l 1x52
 0 640 l 1
 0 961 l 1x54
 120 961 l 1x52
 120 1121 l 1x0a
480 480 m 1xa5
 400 480 320 480 240 480 c 2
 161 480 l 1
 161 161 l 1
 480 161 l 1
 480 480 l 1xa5
EndSplineSet
EndChar

StartChar: hyphen
Encoding: 45 45 50
Width: 860
VWidth: 0
Flags: W
HStem: 480 161<0 641>
VStem: 0 641<480 641>
LayerCount: 2
Fore
SplineSet
0 480 m 1
 0 641 l 1
 641 641 l 1
 641 480 l 1
 467 480 294 480 120 480 c 2
 0 480 l 1
EndSplineSet
EndChar

StartChar: period
Encoding: 46 46 51
Width: 860
VWidth: 0
Flags: W
HStem: 0 161<240 401>
VStem: 240 161<0 161>
LayerCount: 2
Fore
SplineSet
240 0 m 1
 240 161 l 1
 401 161 l 1
 401 0 l 1
 240 0 l 1
EndSplineSet
EndChar

StartChar: one
Encoding: 49 49 52
Width: 860
VWidth: 0
Flags: W
HStem: 0 161<120 240 401 521> 800 161<120 240> 1101 20G<240 401>
VStem: 120 281<800 961> 240 161<161 800 961 1121>
LayerCount: 2
Fore
SplineSet
120 800 m 1xf0
 120 961 l 1xf0
 240 961 l 1
 240 1121 l 1
 401 1121 l 1
 401 161 l 1
 521 161 l 1
 521 0 l 1
 401 0 l 1
 360 0 l 1
 281 0 l 1
 240 0 l 1xe8
 120 0 l 1
 120 161 l 1xf0
 240 161 l 1
 240 800 l 1xe8
 120 800 l 1xf0
EndSplineSet
EndChar

StartChar: asciitilde
Encoding: 126 126 53
Width: 860
VWidth: 0
Flags: W
HStem: 640 161<401 480> 800 161<0 120 281 360 521 641> 960 161<161 240>
VStem: 0 161<800 960> 120 161<961 1121> 240 161<801 960> 360 161<640 800> 480 161<801 961>
LayerCount: 2
Fore
SplineSet
0 800 m 1x54
 0 961 l 1x54
 120 961 l 1x48
 120 1121 l 1
 281 1121 l 1x28
 281 961 l 1x48
 401 961 l 1x44
 401 801 l 1
 480 801 l 1x85
 480 961 l 1
 641 961 l 1
 641 800 l 1x45
 521 800 l 1x42
 521 640 l 1
 360 640 l 1x82
 360 800 l 1x42
 240 800 l 1x44
 240 960 l 1
 161 960 l 1x34
 161 800 l 1
 0 800 l 1x54
EndSplineSet
EndChar

StartChar: colon
Encoding: 58 58 54
Width: 860
VWidth: 0
Flags: W
HStem: 160 161<240 401> 640 161<240 401>
VStem: 240 161<160 321 640 801>
LayerCount: 2
Fore
SplineSet
240 640 m 1
 240 801 l 1
 401 801 l 1
 401 640 l 1
 240 640 l 1
240 160 m 1
 240 321 l 1
 401 321 l 1
 401 160 l 1
 240 160 l 1
EndSplineSet
EndChar

StartChar: parenleft
Encoding: 40 40 55
Width: 860
VWidth: 0
Flags: W
HStem: 0 161<401 521> 160 161<281 360> 800 161<281 360> 960 161<401 521>
VStem: 120 161<321 800> 240 161<161 320 801 960> 360 161<0 160 961 1121>
LayerCount: 2
Fore
SplineSet
401 960 m 1x14
 401 800 l 1x24
 281 800 l 1
 281 321 l 1x68
 401 321 l 1x64
 401 161 l 1x84
 521 161 l 1
 521 0 l 1
 360 0 l 1x82
 360 160 l 1x42
 240 160 l 1
 240 320 l 1x44
 120 320 l 1
 120 801 l 1x48
 240 801 l 1
 240 961 l 1x64
 360 961 l 1x62
 360 1121 l 1
 521 1121 l 1
 521 960 l 1x12
 401 960 l 1x14
EndSplineSet
EndChar

StartChar: question
Encoding: 63 63 56
Width: 860
VWidth: 0
Flags: W
HStem: 0 161<240 401> 320 161<240 360> 480 161<401 480> 800 161<0 120> 960 161<161 480>
VStem: 0 161<800 960> 240 161<0 161 320 480> 360 161<481 640> 480 161<641 960>
LayerCount: 2
Fore
SplineSet
0 800 m 1x9680
 0 961 l 1
 120 961 l 1x9680
 120 1121 l 1
 521 1121 l 1x8d
 521 961 l 1x95
 641 961 l 1
 641 640 l 1x9480
 521 640 l 1
 521 480 l 1xb5
 401 480 l 1xb6
 401 320 l 1
 240 320 l 1
 240 481 l 1xc6
 360 481 l 1xc5
 360 641 l 1xa5
 480 641 l 1
 480 960 l 1
 400 960 320 960 240 960 c 2
 161 960 l 1xae80
 161 800 l 1
 0 800 l 1x9680
240 0 m 1
 240 161 l 1
 401 161 l 1
 401 0 l 1
 240 0 l 1
EndSplineSet
EndChar

StartChar: three
Encoding: 51 51 57
Width: 860
VWidth: 0
Flags: W
HStem: 0 161<161 480> 160 161<0 120> 480 161<240 480> 800 161<0 120> 960 161<161 480>
VStem: 0 161<161 321 800 960> 120 401<0 160 961 1121> 240 281<481 640> 480 161<161 480 641 960>
LayerCount: 2
Fore
SplineSet
0 800 m 1x35
 0 961 l 1x35
 120 961 l 1x32
 120 1121 l 1
 521 1121 l 1x2a
 521 961 l 1x32
 641 961 l 1
 641 640 l 1x3080
 521 640 l 1
 521 481 l 1x31
 641 481 l 1
 641 160 l 1x7080
 521 160 l 1x72
 521 0 l 1xa2
 401 0 l 1
 360 0 l 1
 281 0 l 1
 240 0 l 1xa1
 120 0 l 1xa2
 120 160 l 1x62
 0 160 l 1
 0 321 l 1
 161 321 l 1x64
 161 161 l 1
 480 161 l 1
 480 480 l 1xa480
 440 480 400 480 360 480 c 2
 240 480 l 1
 240 641 l 1xa1
 480 641 l 1
 480 960 l 1xa880
 400 960 320 960 240 960 c 2
 161 960 l 1xad
 161 800 l 1
 0 800 l 1x35
EndSplineSet
EndChar

StartChar: B
Encoding: 66 66 58
Width: 860
VWidth: 0
Flags: W
HStem: 0 161<161 480> 480 161<161 480> 960 161<161 480>
VStem: 0 521<0 160 481 640 961 1121> 0 161<161 480 641 960> 480 161<161 480 641 960>
CounterMasks: 1 e0
LayerCount: 2
Fore
SplineSet
0 1121 m 1xf0
 521 1121 l 1
 521 961 l 1xf0
 641 961 l 1
 641 640 l 1xe4
 521 640 l 1
 521 481 l 1xf0
 641 481 l 1
 641 160 l 1xe4
 521 160 l 1
 521 0 l 1xf0
 401 0 l 1
 360 0 l 1
 281 0 l 1
 240 0 l 1
 161 0 l 1xe8
 120 0 l 1
 0 0 l 1
 0 1121 l 1xf0
480 960 m 1xec
 161 960 l 1
 161 641 l 1
 480 641 l 1
 480 960 l 1xec
480 480 m 1
 161 480 l 1
 161 161 l 1
 480 161 l 1
 480 480 l 1
EndSplineSet
EndChar

StartChar: F
Encoding: 70 70 59
Width: 860
VWidth: 0
Flags: W
HStem: 0 21G<0 161> 0 21G<0 161> 480 161<161 521> 960 161<161 641>
VStem: 0 161<0 480 641 960>
LayerCount: 2
Fore
SplineSet
0 1121 m 1xb8
 641 1121 l 1
 641 960 l 1
 161 960 l 1
 161 641 l 1
 521 641 l 1
 521 480 l 1
 161 480 l 1
 161 0 l 1
 0 0 l 1
 0 1121 l 1xb8
EndSplineSet
EndChar

StartChar: J
Encoding: 74 74 60
Width: 860
VWidth: 0
Flags: W
HStem: 0 161<161 480> 160 161<0 120> 1101 20G<480 641>
VStem: 0 161<161 321> 480 161<161 1121>
LayerCount: 2
Fore
SplineSet
0 160 m 1x78
 0 321 l 1
 161 321 l 1x78
 161 161 l 1
 480 161 l 1xb8
 480 1121 l 1
 641 1121 l 1
 641 160 l 1
 521 160 l 1x78
 521 0 l 1
 401 0 l 1
 360 0 l 1
 281 0 l 1
 240 0 l 1
 120 0 l 1xb8
 120 160 l 1
 0 160 l 1x78
EndSplineSet
EndChar

StartChar: N
Encoding: 78 78 61
Width: 860
VWidth: 0
Flags: W
HStem: 0 21G<0 161 480 641> 0 21G<0 161 480 641> 320 161<401 480> 480 161<281 360> 640 161<161 240> 1101 20G<0 161 480 641>
VStem: 0 281<641 801> 0 161<0 640 801 1121> 240 161<481 640> 360 281<320 480> 480 161<0 320 481 1121>
LayerCount: 2
Fore
SplineSet
161 1121 m 1x8d80
 161 801 l 1x8d80
 281 801 l 1x8e
 281 641 l 1x16
 401 641 l 1x1480
 401 481 l 1
 480 481 l 1
 480 1121 l 1
 641 1121 l 1
 641 0 l 1
 480 0 l 1
 480 320 l 1xa4a0
 360 320 l 1xa440
 360 480 l 1x1440
 240 480 l 1x1480
 240 640 l 1
 161 640 l 1
 161 0 l 1
 0 0 l 1
 0 1121 l 1
 161 1121 l 1x8d80
EndSplineSet
EndChar

StartChar: R
Encoding: 82 82 62
Width: 860
VWidth: 0
Flags: W
HStem: 0 161<521 641> 160 161<401 480> 480 161<161 240 401 480> 960 161<161 480>
VStem: 0 161<0 480 641 960> 240 161<321 480> 360 161<161 320> 480 161<0 160 641 960>
LayerCount: 2
Fore
SplineSet
0 1121 m 1xbc
 521 1121 l 1
 521 961 l 1xba
 641 961 l 1
 641 640 l 1xb9
 521 640 l 1
 521 480 l 1xba
 401 480 l 1
 401 321 l 1x7c
 521 321 l 1x7a
 521 161 l 1xba
 641 161 l 1
 641 0 l 1
 480 0 l 1xb9
 480 160 l 1x79
 360 160 l 1
 360 320 l 1x7a
 240 320 l 1
 240 480 l 1
 161 480 l 1
 161 0 l 1
 0 0 l 1
 0 1121 l 1xbc
480 960 m 1x39
 161 960 l 1
 161 641 l 1
 480 641 l 1
 480 960 l 1x39
EndSplineSet
EndChar

StartChar: bracketleft
Encoding: 91 91 63
Width: 860
VWidth: 0
Flags: W
HStem: 0 161<401 641> 960 161<401 641>
VStem: 240 401<0 161 960 1121> 240 161<161 960>
LayerCount: 2
Fore
SplineSet
240 1121 m 1xe0
 641 1121 l 1
 641 960 l 1xe0
 401 960 l 1
 401 161 l 1xd0
 641 161 l 1
 641 0 l 1xe0
 521 0 l 1
 480 0 l 1
 401 0 l 1xd0
 360 0 l 1
 240 0 l 1
 240 1121 l 1xe0
EndSplineSet
EndChar

StartChar: V
Encoding: 86 86 64
Width: 860
VWidth: 0
Flags: W
HStem: 0 161<281 360> 160 161<161 240 401 480> 1101 20G<0 161 480 641>
VStem: 0 161<321 1121> 120 161<161 320> 240 161<0 160> 360 161<161 320> 480 161<321 1121>
LayerCount: 2
Fore
SplineSet
161 1121 m 1x70
 161 321 l 1x70
 281 321 l 1x68
 281 161 l 1
 360 161 l 1xaa
 360 321 l 1x6a
 480 321 l 1
 480 1121 l 1
 641 1121 l 1
 641 320 l 1x61
 521 320 l 1
 521 160 l 1x62
 401 160 l 1x64
 401 0 l 1
 240 0 l 1xa4
 240 160 l 1x64
 120 160 l 1
 120 320 l 1x68
 0 320 l 1
 0 1121 l 1
 161 1121 l 1x70
EndSplineSet
EndChar

StartChar: asciicircum
Encoding: 94 94 65
Width: 860
VWidth: 0
Flags: W
HStem: 320 161<0 120 521 641> 480 161<161 240 401 480> 640 161<281 360>
VStem: 0 161<320 480> 120 161<481 640> 240 161<641 801> 360 161<481 640> 480 161<320 480>
LayerCount: 2
Fore
SplineSet
0 320 m 1x90
 0 481 l 1x90
 120 481 l 1x88
 120 641 l 1x48
 240 641 l 1x44
 240 801 l 1
 401 801 l 1x24
 401 641 l 1x44
 521 641 l 1x42
 521 481 l 1x82
 641 481 l 1
 641 320 l 1
 480 320 l 1x81
 480 480 l 1x41
 360 480 l 1x42
 360 640 l 1
 281 640 l 1x2a
 281 480 l 1x4a
 161 480 l 1x50
 161 320 l 1
 0 320 l 1x90
EndSplineSet
EndChar

StartChar: Z
Encoding: 90 90 66
Width: 860
VWidth: 0
Flags: W
HStem: 0 161<161 641> 320 161<161 240> 480 161<281 360> 640 161<401 480> 960 161<0 480>
VStem: 0 161<161 320> 120 161<321 480> 240 161<481 640> 360 161<641 800> 480 161<801 960>
LayerCount: 2
Fore
SplineSet
0 960 m 1x9c
 0 1121 l 1
 641 1121 l 1
 641 800 l 1x9c40
 521 800 l 1
 521 640 l 1x9880
 401 640 l 1x99
 401 480 l 1xa9
 281 480 l 1xaa
 281 320 l 1xca
 161 320 l 1
 161 161 l 1
 641 161 l 1
 641 0 l 1xcc40
 521 0 l 1xc880
 480 0 l 1
 401 0 l 1xc940
 360 0 l 1
 281 0 l 1xca80
 240 0 l 1
 161 0 l 1xcd
 120 0 l 1xca
 0 0 l 1
 0 321 l 1xcc
 120 321 l 1
 120 481 l 1xca
 240 481 l 1xc9
 240 641 l 1xa9
 360 641 l 1xa880
 360 801 l 1x9880
 480 801 l 1
 480 960 l 1
 401 960 l 1x9940
 120 960 l 1x9a
 0 960 l 1x9c
EndSplineSet
EndChar

StartChar: b
Encoding: 98 98 67
Width: 860
VWidth: 0
Flags: W
HStem: 0 161<281 480> 160 161<161 240> 480 161<161 240> 640 161<281 480> 1101 20G<0 161>
VStem: 0 281<161 321 480 640> 0 161<0 160 321 480 641 1121> 240 281<0 160 641 801> 480 161<161 640>
LayerCount: 2
Fore
SplineSet
161 1121 m 1x8b
 161 641 l 1
 240 641 l 1xab
 240 801 l 1
 521 801 l 1x1b
 521 641 l 1x2b
 641 641 l 1
 641 160 l 1x6880
 521 160 l 1x69
 521 0 l 1
 401 0 l 1
 360 0 l 1
 240 0 l 1x89
 240 160 l 1
 161 160 l 1x4b
 161 0 l 1
 0 0 l 1
 0 1121 l 1
 161 1121 l 1x8b
480 640 m 1x9c80
 440 640 400 640 360 640 c 2
 281 640 l 1x9c80
 281 480 l 1x2c80
 161 480 l 1
 161 321 l 1x6a
 281 321 l 1x6c
 281 161 l 1
 480 161 l 1
 480 640 l 1x9c80
EndSplineSet
EndChar

StartChar: f
Encoding: 102 102 68
Width: 860
VWidth: 0
Flags: W
HStem: 0 21G<120 281> 0 21G<120 281> 480 161<0 120 281 401> 800 161<401 521> 960 161<281 360>
VStem: 120 161<0 480 641 960> 240 161<961 1121> 360 161<800 960>
LayerCount: 2
Fore
SplineSet
0 480 m 1xac
 0 641 l 1
 120 641 l 1
 120 961 l 1xb4
 240 961 l 1xb2
 240 1121 l 1
 401 1121 l 1x2a
 401 961 l 1x32
 521 961 l 1
 521 800 l 1
 360 800 l 1x31
 360 960 l 1
 281 960 l 1
 281 641 l 1x2d
 401 641 l 1
 401 480 l 1x2a
 281 480 l 1
 281 0 l 1
 120 0 l 1
 120 480 l 1
 0 480 l 1xac
EndSplineSet
EndChar

StartChar: j
Encoding: 106 106 69
Width: 860
VWidth: 0
Flags: W
HStem: -320 161<281 480> -160 161<120 240> 781 20G<480 641> 960 161<480 641>
VStem: 120 161<-159 1> 240 281<-320 -160> 480 161<-159 801 960 1121>
LayerCount: 2
Fore
SplineSet
480 960 m 1x32
 480 1121 l 1
 641 1121 l 1
 641 960 l 1
 480 960 l 1x32
120 -160 m 1x78
 120 1 l 1
 281 1 l 1x78
 281 -159 l 1
 480 -159 l 1xba
 480 801 l 1
 641 801 l 1
 641 -160 l 1x7a
 521 -160 l 1x74
 521 -320 l 1
 240 -320 l 1xb4
 240 -160 l 1x74
 120 -160 l 1x78
EndSplineSet
EndChar

StartChar: n
Encoding: 110 110 70
Width: 860
VWidth: 0
Flags: W
HStem: 0 21G<0 161 480 641> 0 21G<0 161 480 641> 480 161<161 240> 640 161<281 480>
VStem: 0 281<480 640> 0 161<0 480 641 801> 240 281<641 801> 480 161<0 640>
LayerCount: 2
Fore
SplineSet
480 640 m 1x91
 440 640 400 640 360 640 c 2
 281 640 l 1x99
 281 480 l 1x29
 161 480 l 1x24
 161 0 l 1
 0 0 l 1
 0 801 l 1
 161 801 l 1x94
 161 641 l 1
 240 641 l 1x26
 240 801 l 1
 521 801 l 1x16
 521 641 l 1x26
 641 641 l 1x21
 641 0 l 1
 480 0 l 1
 480 640 l 1x91
EndSplineSet
EndChar

StartChar: r
Encoding: 114 114 71
Width: 860
VWidth: 0
Flags: W
HStem: 0 21G<0 161> 0 21G<0 161> 480 161<161 240 521 641> 640 161<281 480>
VStem: 0 281<480 640> 0 161<0 480 641 801> 240 281<641 801> 480 161<480 640>
LayerCount: 2
Fore
SplineSet
480 640 m 1x11
 440 640 400 640 360 640 c 2
 281 640 l 1x19
 281 480 l 1x29
 161 480 l 1x24
 161 0 l 1
 0 0 l 1
 0 801 l 1
 161 801 l 1x94
 161 641 l 1
 240 641 l 1x26
 240 801 l 1
 521 801 l 1x16
 521 641 l 1x26
 641 641 l 1
 641 480 l 1
 480 480 l 1x21
 480 640 l 1x11
EndSplineSet
EndChar

StartChar: nine
Encoding: 57 57 72
Width: 860
VWidth: 0
Flags: W
HStem: 0 161<120 360> 160 161<401 480> 480 161<161 480> 960 161<161 480>
VStem: 0 161<641 960> 120 281<0 160> 360 161<161 320> 480 161<321 480 641 960>
LayerCount: 2
Fore
SplineSet
120 0 m 1xb4
 120 161 l 1xb4
 360 161 l 1xb2
 360 321 l 1x72
 480 321 l 1
 480 480 l 1
 401 480 l 1
 240 480 l 1
 120 480 l 1
 120 640 l 1x75
 0 640 l 1
 0 961 l 1x78
 120 961 l 1
 120 1121 l 1x74
 521 1121 l 1
 521 961 l 1x72
 641 961 l 1
 641 320 l 1x71
 521 320 l 1
 521 160 l 1x72
 401 160 l 1x74
 401 0 l 1
 281 0 l 1
 240 0 l 1
 120 0 l 1xb4
480 960 m 1x39
 400 960 320 960 240 960 c 2
 161 960 l 1
 161 641 l 1
 480 641 l 1
 480 960 l 1x39
EndSplineSet
EndChar

StartChar: v
Encoding: 118 118 73
Width: 860
VWidth: 0
Flags: W
HStem: 0 161<281 360> 160 161<161 240 401 480> 781 20G<0 161 480 641>
VStem: 0 161<321 801> 120 161<161 320> 240 161<0 160> 360 161<161 320> 480 161<321 801>
LayerCount: 2
Fore
SplineSet
161 801 m 1x70
 161 321 l 1x70
 281 321 l 1x68
 281 161 l 1
 360 161 l 1xaa
 360 321 l 1x6a
 480 321 l 1
 480 801 l 1
 641 801 l 1
 641 320 l 1x61
 521 320 l 1
 521 160 l 1x62
 401 160 l 1x64
 401 0 l 1
 240 0 l 1xa4
 240 160 l 1x64
 120 160 l 1
 120 320 l 1x68
 0 320 l 1
 0 801 l 1
 161 801 l 1x70
EndSplineSet
EndChar

StartChar: z
Encoding: 122 122 74
Width: 860
VWidth: 0
Flags: W
HStem: 0 161<0 120 281 641> 320 161<281 360> 640 161<0 360 521 641>
VStem: 120 161<161 320> 240 161<321 480> 360 161<481 640>
CounterMasks: 1 e0
LayerCount: 2
Fore
SplineSet
0 640 m 1xf4
 0 801 l 1
 641 801 l 1
 641 640 l 1
 521 640 l 1
 521 480 l 1xf4
 401 480 l 1
 401 320 l 1xe8
 281 320 l 1
 281 161 l 1
 641 161 l 1
 641 0 l 1
 521 0 l 1xf4
 480 0 l 1
 401 0 l 1xe8
 360 0 l 1
 281 0 l 1xf4
 240 0 l 1xe8
 161 0 l 1
 120 0 l 1
 0 0 l 1
 0 161 l 1
 120 161 l 1
 120 321 l 1xf0
 240 321 l 1
 240 481 l 1xe8
 360 481 l 1
 360 640 l 1
 281 640 l 1
 120 640 l 1
 0 640 l 1xf4
EndSplineSet
EndChar

StartChar: braceright
Encoding: 125 125 75
Width: 860
VWidth: 0
Flags: W
HStem: 0 161<120 360> 480 161<521 641> 960 161<120 360>
VStem: 120 281<0 160 961 1121> 360 161<161 480 641 960> 480 161<481 640>
CounterMasks: 1 e0
LayerCount: 2
Fore
SplineSet
120 960 m 1xf0
 120 1121 l 1
 401 1121 l 1
 401 961 l 1xf0
 521 961 l 1
 521 641 l 1xe8
 641 641 l 1
 641 480 l 1xe4
 521 480 l 1
 521 160 l 1xe8
 401 160 l 1
 401 0 l 1
 281 0 l 1
 240 0 l 1
 120 0 l 1
 120 161 l 1xf0
 360 161 l 1
 360 481 l 1xe8
 480 481 l 1
 480 640 l 1xe4
 360 640 l 1
 360 960 l 1xe8
 320 960 280 960 240 960 c 2
 120 960 l 1xf0
EndSplineSet
EndChar

StartChar: seven
Encoding: 55 55 76
Width: 860
VWidth: 0
Flags: W
HStem: 0 21G<120 281> 0 21G<120 281> 480 161<281 360> 640 161<401 480> 960 161<0 480>
VStem: 120 161<0 480> 240 161<481 640> 360 161<641 800> 480 161<801 960>
LayerCount: 2
Fore
SplineSet
0 960 m 1x1c
 0 1121 l 1
 641 1121 l 1
 641 800 l 1x1c80
 521 800 l 1
 521 640 l 1x19
 401 640 l 1x1a
 401 480 l 1x2a
 281 480 l 1
 281 0 l 1
 120 0 l 1
 120 481 l 1xac
 240 481 l 1
 240 641 l 1xaa
 360 641 l 1xa9
 360 801 l 1x19
 480 801 l 1
 480 960 l 1
 401 960 l 1x1a80
 120 960 l 1
 0 960 l 1x1c
EndSplineSet
EndChar

StartChar: semicolon
Encoding: 59 59 77
Width: 860
VWidth: 0
Flags: W
HStem: -160 161<120 240> 640 161<240 401>
VStem: 120 161<-160 0> 240 161<1 321 640 801>
LayerCount: 2
Fore
SplineSet
240 640 m 1xd0
 240 801 l 1
 401 801 l 1
 401 640 l 1
 240 640 l 1xd0
120 -160 m 1xe0
 120 1 l 1xe0
 240 1 l 1
 240 321 l 1
 401 321 l 1
 401 0 l 1xd0
 281 0 l 1
 281 -160 l 1
 120 -160 l 1xe0
EndSplineSet
EndChar

StartChar: backslash
Encoding: 92 92 78
Width: 860
VWidth: 0
Flags: W
HStem: 160 161<521 641> 320 161<401 480> 480 161<281 360> 640 161<161 240> 800 161<0 120>
VStem: 0 161<801 961> 120 161<641 800> 240 161<481 640> 360 161<321 480> 480 161<160 320>
LayerCount: 2
Fore
SplineSet
0 800 m 1x0c
 0 961 l 1
 161 961 l 1x0c
 161 801 l 1x14
 281 801 l 1x12
 281 641 l 1x22
 401 641 l 1x21
 401 481 l 1x41
 521 481 l 1x4080
 521 321 l 1x8080
 641 321 l 1
 641 160 l 1
 480 160 l 1x8040
 480 320 l 1x4040
 360 320 l 1x4080
 360 480 l 1x2080
 240 480 l 1x21
 240 640 l 1x11
 120 640 l 1x12
 120 800 l 1x0a
 0 800 l 1x0c
EndSplineSet
EndChar

StartChar: at
Encoding: 64 64 79
Width: 860
VWidth: 0
Flags: W
HStem: 0 161<161 641> 480 161<401 480> 800 161<161 240> 960 161<281 480>
VStem: 0 161<161 800> 120 161<801 960> 240 281<961 1121> 240 161<320 480 641 800> 480 161<641 960>
LayerCount: 2
Fore
SplineSet
480 960 m 1xd180
 440 960 400 960 360 960 c 2
 281 960 l 1
 281 801 l 1xd480
 401 801 l 1
 401 641 l 1
 480 641 l 1
 480 960 l 1xd180
240 1121 m 1xd2
 521 1121 l 1xd2
 521 961 l 1xe2
 641 961 l 1
 641 480 l 1
 401 480 l 1
 401 320 l 1
 240 320 l 1
 240 800 l 1
 161 800 l 1
 161 161 l 1
 641 161 l 1
 641 0 l 1xe980
 521 0 l 1xe2
 480 0 l 1
 401 0 l 1xe180
 360 0 l 1
 281 0 l 1xe4
 240 0 l 1xe1
 120 0 l 1
 120 160 l 1xe4
 0 160 l 1
 0 801 l 1xe8
 120 801 l 1
 120 961 l 1xe4
 240 961 l 1xe2
 240 1121 l 1xd2
EndSplineSet
EndChar

StartChar: greater
Encoding: 62 62 80
Width: 860
VWidth: 0
Flags: W
HStem: 0 161<0 120> 160 161<161 240> 320 161<281 360> 480 161<401 521> 640 161<281 360> 800 161<161 240> 960 161<0 120>
VStem: 0 161<0 160 961 1121> 120 161<161 320 801 960> 240 161<321 480 641 800> 360 161<481 640>
LayerCount: 2
Fore
SplineSet
0 960 m 1x03
 0 1121 l 1
 161 1121 l 1x03
 161 961 l 1x05
 281 961 l 1x0480
 281 801 l 1x0880
 401 801 l 1x0840
 401 641 l 1x1040
 521 641 l 1
 521 480 l 1x1020
 401 480 l 1x1040
 401 320 l 1x2040
 281 320 l 1x2080
 281 160 l 1x4080
 161 160 l 1x41
 161 0 l 1
 0 0 l 1
 0 161 l 1x81
 120 161 l 1x8080
 120 321 l 1x4080
 240 321 l 1x4040
 240 481 l 1x2040
 360 481 l 1
 360 640 l 1x2820
 240 640 l 1x2840
 240 800 l 1x0440
 120 800 l 1x0480
 120 960 l 1x0280
 0 960 l 1x03
EndSplineSet
EndChar

StartChar: six
Encoding: 54 54 81
Width: 860
VWidth: 0
Flags: W
HStem: 0 161<161 480> 480 161<161 480> 800 161<161 240> 960 161<281 521>
VStem: 0 161<161 480 641 800> 120 161<801 960> 240 281<961 1121> 480 161<161 480>
LayerCount: 2
Fore
SplineSet
521 960 m 1xd2
 467 960 414 960 360 960 c 2
 281 960 l 1xd4
 281 800 l 1xe4
 161 800 l 1
 161 641 l 1
 521 641 l 1
 521 481 l 1xea
 641 481 l 1
 641 160 l 1xe1
 521 160 l 1
 521 0 l 1xe2
 401 0 l 1
 360 0 l 1
 281 0 l 1xe4
 240 0 l 1xe2
 120 0 l 1
 120 160 l 1xe4
 0 160 l 1
 0 801 l 1xe8
 120 801 l 1
 120 961 l 1xe4
 240 961 l 1xe2
 240 1121 l 1
 521 1121 l 1
 521 960 l 1xd2
480 480 m 1xc9
 161 480 l 1
 161 161 l 1
 480 161 l 1
 480 480 l 1xc9
EndSplineSet
EndChar

StartChar: percent
Encoding: 37 37 82
Width: 860
VWidth: 0
Flags: W
HStem: 0 321<360 641> 160 161<0 120> 320 161<161 240> 480 161<281 360> 640 161<401 480> 800 321<0 281> 800 161<521 641>
VStem: 0 161<160 320> 120 161<321 480> 240 161<481 640> 360 161<641 800> 480 161<801 961>
LayerCount: 2
Fore
SplineSet
0 160 m 1x41
 0 321 l 1x41
 120 321 l 1x4080
 120 481 l 1x2080
 240 481 l 1x2040
 240 641 l 1x1040
 360 641 l 1x1020
 360 801 l 1x0820
 480 801 l 1x0810
 480 961 l 1
 641 961 l 1
 641 800 l 1x0210
 521 800 l 1x0220
 521 640 l 1x0820
 401 640 l 1x0840
 401 480 l 1x1040
 281 480 l 1x1080
 281 320 l 1x2080
 161 320 l 1x21
 161 160 l 1
 0 160 l 1x41
0 1121 m 1x05
 281 1121 l 1
 281 800 l 1
 227 800 174 800 120 800 c 2x0480
 0 800 l 1
 0 1121 l 1x05
360 321 m 1x8020
 641 321 l 1
 641 0 l 1x8010
 521 0 l 1x8020
 480 0 l 1x8010
 360 0 l 1
 360 321 l 1x8020
EndSplineSet
EndChar

StartChar: bracketright
Encoding: 93 93 83
Width: 860
VWidth: 0
Flags: W
HStem: 0 161<0 240> 960 161<0 240>
VStem: 0 401<0 161 960 1121> 240 161<161 960>
LayerCount: 2
Fore
SplineSet
0 960 m 1xe0
 0 1121 l 1
 401 1121 l 1
 401 0 l 1xe0
 281 0 l 1
 240 0 l 1xd0
 161 0 l 1
 120 0 l 1
 0 0 l 1
 0 161 l 1xe0
 240 161 l 1
 240 960 l 1xd0
 161 960 l 1
 120 960 l 1
 0 960 l 1xe0
EndSplineSet
EndChar

StartChar: A
Encoding: 65 65 84
Width: 860
VWidth: 0
Flags: W
HStem: 0 21G<0 161 480 641> 0 21G<0 161 480 641> 320 161<161 480> 800 161<161 240 401 480> 960 161<281 360>
VStem: 0 161<0 320 481 800> 120 161<801 960> 240 161<961 1121> 360 161<801 960> 480 161<0 320 481 800>
LayerCount: 2
Fore
SplineSet
281 960 m 1x2a80
 281 800 l 1x3280
 161 800 l 1
 161 481 l 1
 480 481 l 1
 480 800 l 1x3440
 360 800 l 1x3080
 360 960 l 1
 281 960 l 1x2a80
240 961 m 1xb1
 240 1121 l 1
 401 1121 l 1x29
 401 961 l 1x31
 521 961 l 1
 521 801 l 1x3080
 641 801 l 1
 641 0 l 1
 480 0 l 1
 480 320 l 1
 161 320 l 1
 161 0 l 1
 0 0 l 1
 0 801 l 1xb440
 120 801 l 1
 120 961 l 1xb2
 240 961 l 1xb1
EndSplineSet
EndChar

StartChar: quotedbl
Encoding: 34 34 85
Width: 860
VWidth: 0
Flags: W
HStem: 640 481<120 281 360 521>
VStem: 120 161<640 1121> 360 161<640 1121>
LayerCount: 2
Fore
SplineSet
281 1121 m 1
 281 640 l 1
 120 640 l 1
 120 1121 l 1
 281 1121 l 1
521 1121 m 1
 521 640 l 1
 360 640 l 1
 360 1121 l 1
 521 1121 l 1
EndSplineSet
EndChar

StartChar: E
Encoding: 69 69 86
Width: 860
VWidth: 0
Flags: W
HStem: 0 161<161 641> 480 161<161 521> 960 161<161 641>
VStem: 0 161<161 480 641 960>
CounterMasks: 1 e0
LayerCount: 2
Fore
SplineSet
0 1121 m 1
 641 1121 l 1
 641 960 l 1
 161 960 l 1
 161 641 l 1
 521 641 l 1
 521 480 l 1
 161 480 l 1
 161 161 l 1
 641 161 l 1
 641 0 l 1
 521 0 l 1
 480 0 l 1
 401 0 l 1
 360 0 l 1
 281 0 l 1
 240 0 l 1
 161 0 l 1
 120 0 l 1
 0 0 l 1
 0 1121 l 1
EndSplineSet
EndChar

StartChar: I
Encoding: 73 73 87
Width: 860
VWidth: 0
Flags: W
HStem: 0 161<120 240 401 521> 960 161<120 240 401 521>
VStem: 120 401<0 161 960 1121>
LayerCount: 2
Fore
SplineSet
120 960 m 1
 120 1121 l 1
 521 1121 l 1
 521 960 l 1
 401 960 l 1
 401 161 l 1
 521 161 l 1
 521 0 l 1
 401 0 l 1
 360 0 l 1
 281 0 l 1
 240 0 l 1
 120 0 l 1
 120 161 l 1
 240 161 l 1
 240 960 l 1
 120 960 l 1
EndSplineSet
EndChar

StartChar: numbersign
Encoding: 35 35 88
Width: 860
VWidth: 0
Flags: W
HStem: 0 21G<120 281 360 521> 0 21G<120 281 360 521> 320 161<0 120 281 360 521 641> 640 161<0 120 281 360 521 641> 1101 20G<120 281 360 521>
VStem: 120 161<0 320 481 640 801 1121> 360 161<0 320 481 640 801 1121>
LayerCount: 2
Fore
SplineSet
0 640 m 1xbe
 0 801 l 1
 120 801 l 1
 120 1121 l 1
 281 1121 l 1
 281 801 l 1
 360 801 l 1
 360 1121 l 1
 521 1121 l 1
 521 801 l 1
 641 801 l 1
 641 640 l 1
 521 640 l 1
 521 481 l 1
 641 481 l 1
 641 320 l 1
 521 320 l 1
 521 0 l 1
 360 0 l 1
 360 320 l 1
 281 320 l 1
 281 0 l 1
 120 0 l 1
 120 320 l 1
 0 320 l 1
 0 481 l 1
 120 481 l 1
 120 640 l 1
 0 640 l 1xbe
281 640 m 1
 281 481 l 1
 360 481 l 1
 360 640 l 1
 281 640 l 1
EndSplineSet
EndChar

StartChar: M
Encoding: 77 77 89
Width: 860
VWidth: 0
Flags: W
HStem: 0 21G<0 161 480 641> 0 21G<0 161 480 641> 800 161<161 240 401 480> 1101 20G<0 161 480 641>
VStem: 0 281<801 961> 0 161<0 800 961 1121> 240 161<480 800> 360 281<801 961> 480 161<0 800 961 1121>
LayerCount: 2
Fore
SplineSet
0 0 m 1xb680
 0 1121 l 1
 161 1121 l 1
 161 961 l 1xb680
 281 961 l 1
 281 801 l 1
 360 801 l 1
 360 961 l 1xb9
 480 961 l 1
 480 1121 l 1
 641 1121 l 1
 641 0 l 1
 480 0 l 1
 480 800 l 1
 401 800 l 1
 401 480 l 1
 240 480 l 1
 240 800 l 1
 161 800 l 1
 161 0 l 1
 0 0 l 1xb680
EndSplineSet
EndChar

StartChar: Q
Encoding: 81 81 90
Width: 860
VWidth: 0
Flags: W
HStem: 0 161<161 360 521 641> 160 161<401 480> 320 161<240 360> 960 161<161 480>
VStem: 0 161<161 960> 120 281<0 160> 240 161<321 481> 360 161<161 320> 480 161<0 160 321 960>
LayerCount: 2
Fore
SplineSet
240 320 m 1xb2
 240 481 l 1
 401 481 l 1xb2
 401 321 l 1
 480 321 l 1
 480 960 l 1
 400 960 320 960 240 960 c 2x5280
 161 960 l 1
 161 161 l 1
 360 161 l 1
 360 320 l 1xb9
 240 320 l 1xb2
120 1121 m 1x54
 521 1121 l 1
 521 961 l 1x51
 641 961 l 1
 641 320 l 1x3080
 521 320 l 1
 521 161 l 1xb1
 641 161 l 1
 641 0 l 1
 480 0 l 1xb080
 480 160 l 1
 401 160 l 1x5480
 401 0 l 1x9480
 281 0 l 1
 240 0 l 1x92
 120 0 l 1x94
 120 160 l 1x54
 0 160 l 1
 0 961 l 1x58
 120 961 l 1
 120 1121 l 1x54
EndSplineSet
EndChar

StartChar: U
Encoding: 85 85 91
Width: 860
VWidth: 0
Flags: W
HStem: 0 161<161 480> 1101 20G<0 161 480 641>
VStem: 0 161<161 1121> 480 161<161 1121>
LayerCount: 2
Fore
SplineSet
161 1121 m 1
 161 161 l 1
 480 161 l 1
 480 1121 l 1
 641 1121 l 1
 641 160 l 1
 521 160 l 1
 521 0 l 1
 401 0 l 1
 360 0 l 1
 281 0 l 1
 240 0 l 1
 120 0 l 1
 120 160 l 1
 0 160 l 1
 0 1121 l 1
 161 1121 l 1
EndSplineSet
EndChar

StartChar: two
Encoding: 50 50 92
Width: 860
VWidth: 0
Flags: W
HStem: 0 161<161 641> 480 161<161 480> 800 161<0 120> 960 161<161 480>
VStem: 0 161<161 480 800 960> 120 401<481 640 961 1121> 480 161<641 960>
LayerCount: 2
Fore
SplineSet
0 800 m 1xea
 0 961 l 1xea
 120 961 l 1xe4
 120 1121 l 1
 521 1121 l 1xd4
 521 961 l 1xe4
 641 961 l 1
 641 640 l 1xe2
 521 640 l 1
 521 480 l 1xe4
 427 480 334 480 240 480 c 2
 161 480 l 1
 161 161 l 1
 641 161 l 1
 641 0 l 1xea
 521 0 l 1xe4
 480 0 l 1
 401 0 l 1
 360 0 l 1
 281 0 l 1
 240 0 l 1
 161 0 l 1xea
 120 0 l 1xe4
 0 0 l 1
 0 481 l 1xe8
 120 481 l 1
 120 641 l 1xe4
 480 641 l 1
 480 960 l 1
 400 960 320 960 240 960 c 2
 161 960 l 1xda
 161 800 l 1
 0 800 l 1xea
EndSplineSet
EndChar

StartChar: Y
Encoding: 89 89 93
Width: 860
VWidth: 0
Flags: W
HStem: 0 21G<240 401> 0 21G<240 401> 640 161<161 240 401 480> 800 321<0 120 521 641>
VStem: 0 161<801 1121> 120 161<641 800> 240 161<0 640> 360 161<641 800> 480 161<801 1121>
LayerCount: 2
Fore
SplineSet
161 1121 m 1x18
 161 801 l 1x28
 281 801 l 1
 281 641 l 1
 360 641 l 1
 360 801 l 1x25
 480 801 l 1x2080
 480 1121 l 1
 641 1121 l 1
 641 800 l 1x1080
 521 800 l 1x11
 521 640 l 1x21
 401 640 l 1
 401 0 l 1
 240 0 l 1
 240 640 l 1xa2
 120 640 l 1xa4
 120 800 l 1x14
 0 800 l 1
 0 1121 l 1
 161 1121 l 1x18
EndSplineSet
EndChar

StartChar: grave
Encoding: 96 96 94
Width: 860
VWidth: 0
Flags: W
HStem: 640 161<401 521> 800 161<281 360> 960 161<120 240>
VStem: 120 161<961 1121> 240 161<801 960> 360 161<640 800>
LayerCount: 2
Fore
SplineSet
120 960 m 1x30
 120 1121 l 1
 281 1121 l 1x30
 281 961 l 1x50
 401 961 l 1x48
 401 801 l 1x88
 521 801 l 1
 521 640 l 1
 360 640 l 1x84
 360 800 l 1x44
 240 800 l 1x48
 240 960 l 1x28
 120 960 l 1x30
EndSplineSet
EndChar

StartChar: a
Encoding: 97 97 95
Width: 860
VWidth: 0
Flags: W
HStem: 0 161<161 360> 160 161<401 480> 480 161<401 480> 640 161<161 360>
VStem: 0 161<161 640> 120 281<0 160 641 801> 360 281<161 321 480 640> 480 161<0 160 321 480 641 801>
LayerCount: 2
Fore
SplineSet
360 640 m 1x12
 320 640 280 640 240 640 c 2
 161 640 l 1
 161 161 l 1
 360 161 l 1x9a
 360 321 l 1x4a
 480 321 l 1
 480 480 l 1x61
 360 480 l 1x62
 360 640 l 1x12
120 801 m 1x14
 401 801 l 1x14
 401 641 l 1
 480 641 l 1x25
 480 801 l 1
 641 801 l 1
 641 0 l 1
 480 0 l 1x95
 480 160 l 1
 401 160 l 1x45
 401 0 l 1
 281 0 l 1
 240 0 l 1
 120 0 l 1x85
 120 160 l 1x45
 0 160 l 1
 0 641 l 1x68
 120 641 l 1x64
 120 801 l 1x14
EndSplineSet
EndChar

StartChar: e
Encoding: 101 101 96
Width: 860
VWidth: 0
Flags: W
HStem: 0 161<161 521> 320 161<161 480> 640 161<161 480>
VStem: 0 161<161 320 481 640> 120 401<0 160 641 801> 480 161<481 640>
CounterMasks: 1 e0
LayerCount: 2
Fore
SplineSet
480 640 m 1xf4
 400 640 320 640 240 640 c 2
 161 640 l 1
 161 481 l 1
 480 481 l 1
 480 640 l 1xf4
120 801 m 1xe8
 521 801 l 1
 521 641 l 1xe8
 641 641 l 1
 641 320 l 1
 161 320 l 1
 161 161 l 1xf4
 521 161 l 1
 521 0 l 1
 401 0 l 1
 360 0 l 1
 281 0 l 1
 240 0 l 1
 120 0 l 1
 120 160 l 1xe8
 0 160 l 1
 0 641 l 1xf0
 120 641 l 1
 120 801 l 1xe8
EndSplineSet
EndChar

StartChar: i
Encoding: 105 105 97
Width: 860
VWidth: 0
Flags: W
HStem: 0 161<120 240 401 521> 640 161<120 240> 960 161<240 401>
VStem: 120 281<640 801> 240 161<161 640 960 1121>
LayerCount: 2
Fore
SplineSet
240 960 m 1xe8
 240 1121 l 1
 401 1121 l 1
 401 960 l 1
 240 960 l 1xe8
120 640 m 1xf0
 120 801 l 1
 401 801 l 1xf0
 401 161 l 1
 521 161 l 1
 521 0 l 1
 401 0 l 1
 360 0 l 1
 281 0 l 1
 240 0 l 1xe8
 120 0 l 1
 120 161 l 1xf0
 240 161 l 1
 240 640 l 1xe8
 120 640 l 1xf0
EndSplineSet
EndChar

StartChar: m
Encoding: 109 109 98
Width: 860
VWidth: 0
Flags: W
HStem: 0 21G<0 161 240 401 480 641> 0 21G<0 161 240 401 480 641> 640 161<161 240 401 480>
VStem: 0 281<641 801> 0 161<0 640> 240 161<0 640> 360 161<641 801> 480 161<0 640>
LayerCount: 2
Fore
SplineSet
0 801 m 1xb0
 281 801 l 1
 281 641 l 1
 360 641 l 1
 360 801 l 1
 521 801 l 1
 521 641 l 1xb2
 641 641 l 1
 641 0 l 1
 480 0 l 1
 480 640 l 1
 401 640 l 1
 401 0 l 1
 240 0 l 1
 240 640 l 1
 161 640 l 1
 161 0 l 1
 0 0 l 1xad
 0 801 l 1xb0
EndSplineSet
EndChar

StartChar: q
Encoding: 113 113 99
Width: 860
VWidth: 0
Flags: W
HStem: 0 161<161 360> 160 161<401 480> 480 161<401 480> 640 161<161 360>
VStem: 0 161<161 640> 120 281<0 160 641 801> 360 281<161 321 480 640> 480 161<-320 160 321 480 641 801>
LayerCount: 2
Fore
SplineSet
360 640 m 1x12
 320 640 280 640 240 640 c 2
 161 640 l 1
 161 161 l 1
 360 161 l 1x9a
 360 321 l 1x4a
 480 321 l 1
 480 480 l 1x61
 360 480 l 1x62
 360 640 l 1x12
120 801 m 1x14
 401 801 l 1x14
 401 641 l 1
 480 641 l 1x25
 480 801 l 1
 641 801 l 1
 641 -320 l 1
 480 -320 l 1
 480 160 l 1
 401 160 l 1x55
 401 0 l 1
 281 0 l 1
 240 0 l 1
 120 0 l 1x85
 120 160 l 1x45
 0 160 l 1
 0 641 l 1x68
 120 641 l 1x64
 120 801 l 1x14
EndSplineSet
EndChar

StartChar: u
Encoding: 117 117 100
Width: 860
VWidth: 0
Flags: W
HStem: 0 161<161 360> 160 161<401 480> 781 20G<0 161 480 641>
VStem: 0 161<161 801> 120 281<0 160> 360 281<161 321> 480 161<0 160 321 801>
LayerCount: 2
Fore
SplineSet
161 801 m 1x70
 161 161 l 1
 360 161 l 1xb4
 360 321 l 1x74
 480 321 l 1x62
 480 801 l 1
 641 801 l 1
 641 0 l 1
 480 0 l 1xa2
 480 160 l 1
 401 160 l 1x6a
 401 0 l 1
 281 0 l 1
 240 0 l 1
 120 0 l 1xaa
 120 160 l 1x6a
 0 160 l 1
 0 801 l 1
 161 801 l 1x70
EndSplineSet
EndChar

StartChar: y
Encoding: 121 121 101
Width: 860
VWidth: 0
Flags: W
HStem: -320 161<120 480> 0 161<161 360> 160 161<401 480> 781 20G<0 161 480 641>
VStem: 0 161<161 801> 120 281<0 160> 360 281<161 321> 480 161<-159 160 321 801>
LayerCount: 2
Fore
SplineSet
120 -320 m 1xb5
 120 -159 l 1
 480 -159 l 1
 480 160 l 1
 401 160 l 1xb5
 401 0 l 1
 281 0 l 1
 240 0 l 1
 120 0 l 1xd5
 120 160 l 1xb5
 0 160 l 1xb8
 0 801 l 1
 161 801 l 1
 161 161 l 1
 360 161 l 1xda
 360 321 l 1xba
 480 321 l 1
 480 801 l 1
 641 801 l 1
 641 -160 l 1
 521 -160 l 1
 521 -320 l 1
 120 -320 l 1xb5
EndSplineSet
EndChar
